<svg width="18" height="19" viewBox="0 0 18 19" fill="none" xmlns="http://www.w3.org/2000/svg">
<g id="Group 11">
<path id="Vector" d="M16.0368 9.84562C16.432 10.0776 16.9405 9.9452 17.1724 9.54987C17.4043 9.15453 17.2719 8.64612 16.8766 8.41421L16.0368 9.84562ZM2.56744 0.980932L2.13916 1.69178L2.14751 1.69667L2.56744 0.980932ZM0.981897 2.03759L0.161023 2.15924C0.169144 2.21401 0.18272 2.26783 0.201562 2.3199L0.981897 2.03759ZM2.76742 9.41222C2.92333 9.84319 3.39909 10.0661 3.83006 9.91024C4.26103 9.75434 4.484 9.27857 4.3281 8.8476L2.76742 9.41222ZM16.8766 9.84562C17.2719 9.61371 17.4043 9.1053 17.1724 8.70996C16.9405 8.31474 16.432 8.1823 16.0368 8.41421L16.8766 9.84562ZM2.56744 17.279L2.14747 16.5631L2.1392 16.5681L2.56744 17.279ZM0.981897 16.2223L0.201562 15.9399C0.18272 15.9921 0.169144 16.0458 0.161023 16.1006L0.981897 16.2223ZM4.3281 9.41222C4.484 8.98126 4.26103 8.50549 3.83006 8.34959C3.39909 8.19369 2.92333 8.41664 2.76742 8.8476L4.3281 9.41222ZM16.4567 9.95981C16.915 9.95981 17.2865 9.58826 17.2865 9.12997C17.2865 8.67157 16.915 8.30013 16.4567 8.30013V9.95981ZM3.54775 8.30013C3.08945 8.30013 2.71791 8.67157 2.71791 9.12997C2.71791 9.58826 3.08945 9.95981 3.54775 9.95981V8.30013ZM16.8766 8.41421L2.98737 0.265193L2.14751 1.69667L16.0368 9.84562L16.8766 8.41421ZM2.99568 0.270128C2.37135 -0.106009 1.58604 -0.0880959 0.979518 0.316112L1.89991 1.69719C1.97189 1.64922 2.06507 1.64714 2.13916 1.69178L2.99568 0.270128ZM0.979518 0.316112C0.372985 0.72032 0.0541728 1.43824 0.161023 2.15924L1.80277 1.91594C1.79009 1.83036 1.82792 1.74517 1.89991 1.69719L0.979518 0.316112ZM0.201562 2.3199L2.76742 9.41222L4.3281 8.8476L1.76224 1.75528L0.201562 2.3199ZM16.0368 8.41421L2.14747 16.5631L2.98737 17.9946L16.8766 9.84562L16.0368 8.41421ZM2.1392 16.5681C2.0651 16.6128 1.97189 16.6107 1.89991 16.5626L0.979507 17.9437C1.58604 18.3479 2.37135 18.3658 2.99568 17.9897L2.1392 16.5681ZM1.89991 16.5626C1.82792 16.5147 1.79009 16.4294 1.80277 16.3439L0.161023 16.1006C0.0541728 16.8216 0.372985 17.5395 0.979507 17.9437L1.89991 16.5626ZM1.76224 16.5046L4.3281 9.41222L2.76742 8.8476L0.201562 15.9399L1.76224 16.5046ZM16.4567 8.30013H3.54775V9.95981H16.4567V8.30013Z" fill="white"/>
</g>
</svg>
